{
    "asset" : {
        "generator" : "Khronos glTF Blender I/O v1.6.16",
        "version" : "2.0"
    },
    "scene" : 0,
    "scenes" : [
        {
            "name" : "Scene",
            "nodes" : [
                0,
                1,
                2,
                3
            ]
        }
    ],
    "nodes" : [
        {
            "name" : "normal",
            "rotation" : [
                0.3796638250350952,
                -0.5923441052436829,
                0.6060348153114319,
                0.3710870146751404
            ],
            "translation" : [
                -742.25146484375,
                -306.7639465332031,
                -2010.68896484375
            ]
        },
        {
            "name" : "normal.001",
            "rotation" : [
                -0.7130753993988037,
                -0.27051177620887756,
                0.35815176367759705,
                -0.5385853052139282
            ],
            "translation" : [
                1145.93017578125,
                -306.23309326171875,
                -1030.9351806640625
            ]
        },
        {
            "mesh" : 0,
            "name" : "Polygon",
            "rotation" : [
                0.14474454522132874,
                0.4009285271167755,
                -0.8914765119552612,
                -0.1535412222146988
            ],
            "translation" : [
                5.947279930114746,
                13.520102500915527,
                -2.7043380737304688
            ]
        },
        {
            "name" : "normal.002",
            "rotation" : [
                0.3796638250350952,
                -0.5923441052436829,
                0.6060348153114319,
                0.3710870146751404
            ],
            "translation" : [
                -742.25146484375,
                -306.7639465332031,
                -2010.68896484375
            ]
        }
    ],
    "materials" : [
        {
            "name" : "PBR.002",
            "pbrMetallicRoughness" : {
                "baseColorFactor" : [
                    0.800000011920929,
                    0.328000009059906,
                    0.328000009059906,
                    1
                ],
                "baseColorTexture" : {
                    "index" : 0
                }
            }
        }
    ],
    "meshes" : [
        {
            "name" : "Polygon.003",
            "primitives" : [
                {
                    "attributes" : {
                        "POSITION" : 0,
                        "NORMAL" : 1,
                        "TEXCOORD_0" : 2
                    },
                    "indices" : 3,
                    "material" : 0
                }
            ]
        }
    ],
    "textures" : [
        {
            "sampler" : 0,
            "source" : 0
        }
    ],
    "images" : [
        {
            "mimeType" : "image/png",
            "name" : "Image_0",
            "uri" : "Image_0.png"
        }
    ],
    "accessors" : [
        {
            "bufferView" : 0,
            "componentType" : 5126,
            "count" : 542112,
            "max" : [
                139.4294891357422,
                121.02572631835938,
                118.38680267333984
            ],
            "min" : [
                -138.53759765625,
                -121.03608703613281,
                -118.38677215576172
            ],
            "type" : "VEC3"
        },
        {
            "bufferView" : 1,
            "componentType" : 5126,
            "count" : 542112,
            "type" : "VEC3"
        },
        {
            "bufferView" : 2,
            "componentType" : 5126,
            "count" : 542112,
            "type" : "VEC2"
        },
        {
            "bufferView" : 3,
            "componentType" : 5125,
            "count" : 3244128,
            "type" : "SCALAR"
        }
    ],
    "bufferViews" : [
        {
            "buffer" : 0,
            "byteLength" : 6505344,
            "byteOffset" : 0
        },
        {
            "buffer" : 0,
            "byteLength" : 6505344,
            "byteOffset" : 6505344
        },
        {
            "buffer" : 0,
            "byteLength" : 4336896,
            "byteOffset" : 13010688
        },
        {
            "buffer" : 0,
            "byteLength" : 12976512,
            "byteOffset" : 17347584
        }
    ],
    "samplers" : [
        {
            "magFilter" : 9729,
            "minFilter" : 9987
        }
    ],
    "buffers" : [
        {
            "byteLength" : 30324096,
            "uri" : "1.bin"
        }
    ]
}
